<svg xmlns="http://www.w3.org/2000/svg" viewBox="0 0 320 200" preserveAspectRatio="xMidYMid slice"><defs><linearGradient id="tg_start_2007" x1="0" y1="0" x2="1" y2="1"><stop offset="0" stop-color="#1e3a8a"/><stop offset="1" stop-color="#f59e0b"/></linearGradient></defs><rect width="320" height="200" fill="url(#tg_start_2007)"/><g opacity="0.88"><rect x="32.0" y="44.0" width="108.80000000000001" height="84.0" rx="6.0" fill="#0f172a" stroke="#fde68a" stroke-width="2"/><rect x="38.4" y="54.0" width="96.0" height="60.0" fill="#1e3a8a"/><line x1="38.4" y1="62.0" x2="134.4" y2="62.0" stroke="#fde68a" stroke-width="0.5" opacity="0.4"/><line x1="38.4" y1="74.0" x2="134.4" y2="74.0" stroke="#fde68a" stroke-width="0.5" opacity="0.4"/><line x1="38.4" y1="86.0" x2="134.4" y2="86.0" stroke="#fde68a" stroke-width="0.5" opacity="0.4"/><rect x="70.4" y="128.0" width="32.0" height="8.0" fill="#0f172a"/><rect x="57.599999999999994" y="136.0" width="57.599999999999994" height="8.0" rx="4.0" fill="#0f172a"/><rect x="211.20000000000002" y="110.00000000000001" width="51.2" height="16.0" rx="4.0" fill="#0f172a"/><line x1="236.8" y1="110.00000000000001" x2="236.8" y2="76.0" stroke="#fde68a" stroke-width="3" stroke-linecap="round"/><circle cx="236.8" cy="68.0" r="7.0" fill="#f59e0b"/><path d="M0,200 L0,172.0 Q80.0,156.0 160.0,172.0 T320,172.0 L320,200 Z" fill="#0f172a" opacity="0.55"/></g><rect x="0" y="0" width="320" height="200" fill="url(#tg_start_2007)" opacity="0.22"/><text x="14" y="26" fill="#fde68a" font-size="10" font-weight="800" letter-spacing="2" font-family="system-ui">START</text><text x="306" y="158" text-anchor="end" fill="#fff" font-size="72" font-weight="900" font-family="system-ui,-apple-system,sans-serif">2007</text></svg>