<svg xmlns="http://www.w3.org/2000/svg" viewBox="0 0 320 200" preserveAspectRatio="xMidYMid slice"><defs><linearGradient id="tg_indus_2012" x1="0" y1="0" x2="1" y2="1"><stop offset="0" stop-color="#7f1d1d"/><stop offset="1" stop-color="#f59e0b"/></linearGradient></defs><rect width="320" height="200" fill="url(#tg_indus_2012)"/><g opacity="0.88"><line x1="22.400000000000002" y1="184.0" x2="22.400000000000002" y2="36.0" stroke="#fbbf24" stroke-width="2"/><circle cx="22.400000000000002" cy="36.0" r="10.0" fill="#fbbf24"/><circle cx="22.400000000000002" cy="64.0" r="14.0" fill="none" stroke="#fbbf24" stroke-width="2"/><rect x="44.800000000000004" y="90.0" width="16.0" height="100.0" fill="#7f1d1d"/><rect x="64.0" y="70.0" width="19.2" height="120.0" fill="#991b1b"/><rect x="86.4" y="84.0" width="16.0" height="106.0" fill="#7f1d1d"/><rect x="105.60000000000001" y="104.0" width="19.2" height="86.0" fill="#991b1b"/><rect x="128.0" y="60.0" width="22.400000000000002" height="130.0" fill="#7f1d1d"/><rect x="153.6" y="96.0" width="16.0" height="94.0" fill="#991b1b"/><rect x="172.8" y="76.0" width="19.2" height="113.99999999999999" fill="#7f1d1d"/><rect x="195.2" y="100.0" width="16.0" height="90.0" fill="#7f1d1d"/><rect x="214.4" y="80.0" width="19.2" height="110.00000000000001" fill="#991b1b"/><rect x="236.8" y="96.0" width="16.0" height="94.0" fill="#7f1d1d"/><rect x="256.0" y="84.0" width="19.2" height="106.0" fill="#7f1d1d"/><polygon points="160.0,190.0 102.4,44.0 217.60000000000002,44.0" fill="#fbbf24" opacity="0.18"/><rect x="0" y="176.0" width="320" height="24.0" fill="#7f1d1d" opacity="0.6"/></g><rect x="0" y="0" width="320" height="200" fill="url(#tg_indus_2012)" opacity="0.22"/><text x="14" y="26" fill="#fbbf24" font-size="10" font-weight="800" letter-spacing="2" font-family="system-ui">INDUSTRY</text><text x="306" y="158" text-anchor="end" fill="#fff" font-size="72" font-weight="900" font-family="system-ui,-apple-system,sans-serif">2012</text></svg>